<svg xmlns="http://www.w3.org/2000/svg" xmlns:xlink="http://www.w3.org/1999/xlink" width="207.8" height="222.5" viewBox="0 0 207.8 222.5">
  <defs>
    <clipPath id="clip-path">
      <rect id="Rectangle_5002" data-name="Rectangle 5002" width="207.8" height="222.5" transform="translate(62 59.1)" fill="none"/>
    </clipPath>
  </defs>
  <g id="Group_7187" data-name="Group 7187" transform="translate(-62 -59.1)" clip-path="url(#clip-path)">
    <path id="Path_31573" data-name="Path 31573" d="M143.7,108.4a86.6,86.6,0,1,1-81.6,91.4,86.6,86.6,0,0,1,81.6-91.4" fill="#ffe6f2"/>
    <path id="Path_31574" data-name="Path 31574" d="M111.8,134.9l-9.7-6.5c0,.6-.1,1.2-.1,1.8l-18-12s-8.5-2-9.3,5.7,6.3,15.4,25,7.4l9.8,7,1.3-1.6,1-1.8" fill="#ffd0e4"/>
    <path id="Path_31575" data-name="Path 31575" d="M220.2,74.1l-1.6,2.3L226,182.8a44.5,44.5,0,0,1-5.7,25.1l-90.9-61.1-1.4,1.9-1.4,2,88.9,64A44.6,44.6,0,0,1,194,228.8l-102.3,30-1.6,2.3h0a8,8,0,0,1,.9,1.5l104-30.5a48,48,0,0,0,23.4-15.4l2.5,1.8c-1.4,7.4-4.3,25.9.3,27.2s13.6-9.6,8.7-20.8l9,6.5c-1.4,7.7-4.2,25.6.3,26.8s13.3-9.2,9-20.1l8.6,6.2,5.7-8.3-8.4-5.6c11.4-.2,17.8-11.9,15.2-15.4s-18.1,4.8-25,8.9l-8.9-6c11.8.3,18.6-11.7,15.9-15.4s-18.7,5.1-25.3,9.1l-2.7-1.8a47.9,47.9,0,0,0,6.3-27.3L222,74.4l-1.7-.3Z" fill="#ffd0e4"/>
    <path id="Path_31576" data-name="Path 31576" d="M102,130.3a10.869,10.869,0,0,0,.1-1.8c1.2-20.4-11.8-24.6-16.9-21.4s-1.1,11.3-1.1,11.2l17.9,12" fill="#ffd0e4"/>
    <path id="Path_31577" data-name="Path 31577" d="M216.1,62.4a7.5,7.5,0,0,0-1.2,3.8A40.2,40.2,0,0,1,204.6,73a141.094,141.094,0,0,1-14.1,6.1c-4.8,1.9-9.9,3.5-14.9,5.2s-9.9,2.9-16.2,5.5A93.7,93.7,0,0,0,129.6,111a115.6,115.6,0,0,0-17.8,23.9l-1,1.8-1.3,1.6a115.7,115.7,0,0,0-16.2,25,93.7,93.7,0,0,0-9.5,35.3c-.2,6.8.3,11.8.5,17.1s.4,10.5.3,15.7a140.9,140.9,0,0,1-.8,15.4,40.3,40.3,0,0,1-2.9,12,7.5,7.5,0,0,0-3.1,2.5,7.725,7.725,0,1,0,12.7,8.8,7.5,7.5,0,0,0,.6-7.5,7.9,7.9,0,0,0-.9-1.5h0l-6-1.8s16.3-18.1,19.5-43l1.2-15.8a96.9,96.9,0,0,1,8.9-27.4,181.2,181.2,0,0,1,13-22.4l1.4-2,1.4-1.9a181.3,181.3,0,0,1,16.5-20A96.9,96.9,0,0,1,168.5,109l14.4-6.6A160.692,160.692,0,0,0,198,94.2a99.1,99.1,0,0,0,14.2-10.5,63.7,63.7,0,0,0,6.5-7.3l1.6-2.3h0l1.7.3a7.5,7.5,0,0,0,6.8-3.2,7.725,7.725,0,0,0-12.7-8.8m4.1,11.7a52.5,52.5,0,0,1-8.1,9.5A99.1,99.1,0,0,1,198,94.2a160.693,160.693,0,0,1-15.1,8.2c22.3-11.6,33.6-33.2,33.6-33.2Z" fill="#ac0857"/>
    <path id="Path_31578" data-name="Path 31578" d="M91.7,258.8a63.8,63.8,0,0,0,4.5-8.6,99.2,99.2,0,0,0,4.9-16.9,160.9,160.9,0,0,0,2.4-17c-3.2,24.9-19.5,43-19.5,43l6,1.8h0l1.6-2.3" fill="#4c0b36"/>
    <path id="Path_31579" data-name="Path 31579" d="M182.8,102.4A160.7,160.7,0,0,0,198,94.2a99.2,99.2,0,0,0,14.2-10.5,52.6,52.6,0,0,0,8.1-9.5l-3.8-5s-11.3,21.6-33.6,33.2" fill="#4c0b36"/>
  </g>
</svg>
