<svg xmlns="http://www.w3.org/2000/svg" xmlns:xlink="http://www.w3.org/1999/xlink" width="549" height="233.76" viewBox="0 0 549 233.76">
  <defs>
    <clipPath id="clip-path">
      <rect id="Rectangle_5094" data-name="Rectangle 5094" width="114.1" height="76.85" transform="translate(758.9 88.1)" fill="none"/>
    </clipPath>
    <clipPath id="clip-path-2">
      <rect id="Rectangle_5091" data-name="Rectangle 5091" width="16.3" height="41.75" transform="translate(768.2 108.7)" fill="none"/>
    </clipPath>
    <clipPath id="clip-path-3">
      <rect id="Rectangle_5092" data-name="Rectangle 5092" width="38.8" height="25.6" transform="translate(818 123.3)" fill="none"/>
    </clipPath>
    <clipPath id="clip-path-4">
      <rect id="Rectangle_5093" data-name="Rectangle 5093" width="36.9" height="23.86" transform="translate(830 103.6)" fill="none"/>
    </clipPath>
    <clipPath id="clip-path-5">
      <rect id="Rectangle_5107" data-name="Rectangle 5107" width="192.3" height="233.76" transform="translate(324 74.6)" fill="none"/>
    </clipPath>
    <clipPath id="clip-path-6">
      <rect id="Rectangle_5095" data-name="Rectangle 5095" width="38.3" height="34.34" transform="translate(351 119.7)" fill="none"/>
    </clipPath>
    <clipPath id="clip-path-7">
      <rect id="Rectangle_5096" data-name="Rectangle 5096" width="42.3" height="35.3" transform="translate(345.8 123.4)" fill="none"/>
    </clipPath>
    <clipPath id="clip-path-8">
      <rect id="Rectangle_5097" data-name="Rectangle 5097" width="27.8" height="44.63" transform="translate(396.1 106.8)" fill="none"/>
    </clipPath>
    <clipPath id="clip-path-9">
      <rect id="Rectangle_5098" data-name="Rectangle 5098" width="28.2" height="44.24" transform="translate(390.2 108.2)" fill="none"/>
    </clipPath>
    <clipPath id="clip-path-10">
      <rect id="Rectangle_5099" data-name="Rectangle 5099" width="20.7" height="47.89" transform="translate(453.2 101.6)" fill="none"/>
    </clipPath>
    <clipPath id="clip-path-11">
      <rect id="Rectangle_5100" data-name="Rectangle 5100" width="22.1" height="48.54" transform="translate(442.1 101)" fill="none"/>
    </clipPath>
    <clipPath id="clip-path-12">
      <rect id="Rectangle_5101" data-name="Rectangle 5101" width="46.1" height="21.23" transform="translate(329.1 176.4)" fill="none"/>
    </clipPath>
    <clipPath id="clip-path-13">
      <rect id="Rectangle_5102" data-name="Rectangle 5102" width="50.1" height="22.05" transform="translate(326.1 186.3)" fill="none"/>
    </clipPath>
    <clipPath id="clip-path-14">
      <rect id="Rectangle_5103" data-name="Rectangle 5103" width="41.5" height="29" transform="translate(373.7 170.2)" fill="none"/>
    </clipPath>
    <clipPath id="clip-path-15">
      <rect id="Rectangle_5104" data-name="Rectangle 5104" width="46" height="31.08" transform="translate(369.1 174.7)" fill="none"/>
    </clipPath>
    <clipPath id="clip-path-16">
      <rect id="Rectangle_5105" data-name="Rectangle 5105" width="32.5" height="41.05" transform="translate(413.9 139.9)" fill="none"/>
    </clipPath>
    <clipPath id="clip-path-17">
      <rect id="Rectangle_5106" data-name="Rectangle 5106" width="34.9" height="40.93" transform="translate(407.9 142.3)" fill="none"/>
    </clipPath>
  </defs>
  <g id="Group_7309" data-name="Group 7309" transform="translate(-324 -74.6)" opacity="0.35">
    <g id="Group_7308" data-name="Group 7308" clip-path="url(#clip-path)">
      <path id="Path_31768" data-name="Path 31768" d="M820.8,122.2a66.5,66.5,0,0,1-7.6-7.1c-5.3-5.8-7.9-11.1-7.8-15.7a11.1,11.1,0,0,1,5-9,12.6,12.6,0,0,1,9.8-2.2c5,.8,10.4,4.2,16.2,10a72.69,72.69,0,0,1,7.1,8.3l-4.5,3.2a66.8,66.8,0,0,0-9.7-10.5,25.6,25.6,0,0,0-8.5-5.1,7.7,7.7,0,0,0-7.2.9,5.5,5.5,0,0,0-2.7,4.6c-.1,3,2.2,7.2,6.4,11.8a61.3,61.3,0,0,0,6.9,6.5Z" fill="#ac0857"/>
      <path id="Path_31769" data-name="Path 31769" d="M809.9,129.5l-4.7-2.9a82.3,82.3,0,0,0,5.2-10.3c2.9-6.9,3.8-12.3,2.6-15.3a4.8,4.8,0,0,0-3.6-2.9c-4.6-1.2-8.9,1.5-12.7,7.9a49.3,49.3,0,0,0-4.7,11.2l-5.4-1.4a54.4,54.4,0,0,1,5.3-12.6,25.9,25.9,0,0,1,7.3-8.3,13.7,13.7,0,0,1,11.6-2.2,10.3,10.3,0,0,1,7.4,6.2c1.8,4.5.9,11.1-2.6,19.6a86.6,86.6,0,0,1-5.6,11" fill="#ac0857"/>
      <path id="Path_31770" data-name="Path 31770" d="M782.9,106.5l-7.2,2.9-16.8,32.5s17.5,14.8,32.8,23l5.6-2.8Z" fill="#ac0857"/>
      <path id="Path_31771" data-name="Path 31771" d="M782.9,106.5s22.9,9.6,32.8,22.1l-18.4,33.6a348.7,348.7,0,0,1-31.9-22.3Z" fill="#d94078"/>
      <path id="Path_31772" data-name="Path 31772" d="M785.5,112.5a1.5,1.5,0,1,1-.2-2.1,1.5,1.5,0,0,1,.2,2.1" fill="#681414"/>
      <path id="Path_31773" data-name="Path 31773" d="M770.4,139.1a1.5,1.5,0,1,1-.2-2.1,1.5,1.5,0,0,1,.2,2.1" fill="#681414"/>
      <path id="Path_31774" data-name="Path 31774" d="M797.6,158.9a1.5,1.5,0,1,1-.2-2.1,1.5,1.5,0,0,1,.2,2.1" fill="#681414"/>
      <path id="Path_31775" data-name="Path 31775" d="M812.5,131a1.5,1.5,0,1,1-.2-2.1,1.5,1.5,0,0,1,.2,2.1" fill="#681414"/>
      <path id="Path_31776" data-name="Path 31776" d="M801.4,137.3c-4.7,3.6-13.4,5.7-13.4,5.7h0c-.7-1.3-6.1-12.8-1.8-18.5a6.9,6.9,0,0,1,1.4-1.4l.4-.3c3.6-2,6.8,3.1,6.4,7a5.2,5.2,0,0,1-.3,1.3,12.8,12.8,0,0,1,3.7-2.3,4.345,4.345,0,0,1,5,.9c1.5,1.6,1.3,5.6-1.4,7.7" fill="#681414"/>
      <path id="Path_31777" data-name="Path 31777" d="M799.4,137.7c-3.3,2.5-8.5,4.3-11.4,5.1-.7-1.3-6.1-12.8-1.8-18.5a6.9,6.9,0,0,1,1.4-1.4l.4-.3c3,.5,5.2,5.5,4.1,8.7a4.3,4.3,0,0,0,2.1-.4c0,.4.1-.4,0,0a12.7,12.7,0,0,1,3.7-2.3,3.8,3.8,0,0,1,2.9,1.3c2.7,3,1.3,5.6-1.4,7.7" fill="#ac0857"/>
      <g id="Group_7303" data-name="Group 7303" opacity="0.2" style="mix-blend-mode: multiply;isolation: isolate">
        <g id="Group_7302" data-name="Group 7302" clip-path="url(#clip-path-2)">
          <path id="Path_31778" data-name="Path 31778" d="M783.3,108.7l-15.1,29.5s8.7,9.5,16.3,12.3c0,0-12-10.1-9.8-17.1s8.6-24.6,8.6-24.6" fill="#9d3408"/>
        </g>
      </g>
      <path id="Path_31779" data-name="Path 31779" d="M798.7,155.3,812.9,128s-8.9-9.2-16.6-11.9c0,0,12.3,9.8,10.2,16.9s-7.8,22.3-7.8,22.3" fill="#f67aac"/>
      <path id="Path_31780" data-name="Path 31780" d="M815.9,122.5l-.2,7.7,23.2,28.4s20.5-10.2,34.2-20.9l-.3-6.2Z" fill="#ac0857"/>
      <path id="Path_31781" data-name="Path 31781" d="M815.9,122.5s17.9-17.2,33.4-21.3l23.5,30.2a348.612,348.612,0,0,1-33.1,20.4Z" fill="#d94078"/>
      <path id="Path_31782" data-name="Path 31782" d="M822.4,122.5a1.5,1.5,0,1,1-2-.6,1.5,1.5,0,0,1,2,.6" fill="#681414"/>
      <path id="Path_31783" data-name="Path 31783" d="M840.8,146.9a1.5,1.5,0,1,1-2-.6,1.5,1.5,0,0,1,2,.6" fill="#9d3408"/>
      <path id="Path_31784" data-name="Path 31784" d="M869.8,129.9a1.5,1.5,0,1,1-2-.6,1.5,1.5,0,0,1,2,.6" fill="#681414"/>
      <path id="Path_31785" data-name="Path 31785" d="M850.1,105.1a1.5,1.5,0,1,1-2-.6,1.5,1.5,0,0,1,2,.6" fill="#681414"/>
      <path id="Path_31786" data-name="Path 31786" d="M851.5,117.8c1.4,5.7-.1,14.5-.1,14.5h-.1c-1.5.2-14.2.6-17.6-5.7a6.9,6.9,0,0,1-.7-1.8v-.5c-.5-4.1,5.6-5,9-3.1l1.1.7a12.7,12.7,0,0,1-.7-4.3c.1-1.8.7-3.5,2.8-4.2,3.8-1.3,5.7,1,6.5,4.4" fill="#681414"/>
      <path id="Path_31787" data-name="Path 31787" d="M851.1,119.8c1,4,.5,9.5.2,12.5-1.5.2-14.2.6-17.6-5.7a6.9,6.9,0,0,1-.7-1.8v-.5c1.6-2.6,7.1-2.6,9.6-.3a4.3,4.3,0,0,0,.4-2.1c.4.2-.3-.3,0,0a12.7,12.7,0,0,1-.7-4.3,3.8,3.8,0,0,1,2.4-2.2c3.8-1.3,5.7,1,6.5,4.4" fill="#ac0857"/>
      <g id="Group_7305" data-name="Group 7305" opacity="0.2" style="mix-blend-mode: multiply;isolation: isolate">
        <g id="Group_7304" data-name="Group 7304" clip-path="url(#clip-path-3)">
          <path id="Path_31788" data-name="Path 31788" d="M818,123.3l21,25.6s12.1-4.2,17.8-10.1c0,0-14.1,7-19.6,2.2S818,123.3,818,123.3" fill="#681414"/>
        </g>
      </g>
      <g id="Group_7307" data-name="Group 7307" opacity="0.5" style="mix-blend-mode: screen;isolation: isolate">
        <g id="Group_7306" data-name="Group 7306" clip-path="url(#clip-path-4)">
          <path id="Path_31789" data-name="Path 31789" d="M866.9,127.4l-19.4-23.9S835.5,108,830,114c0,0,13.9-7.3,19.5-2.7s17.4,16,17.4,16" fill="#f67aac"/>
        </g>
      </g>
    </g>
  </g>
  <g id="Group_7335" data-name="Group 7335" transform="translate(-324 -74.6)" opacity="0.35">
    <g id="Group_7334" data-name="Group 7334" clip-path="url(#clip-path-5)">
      <path id="Path_31790" data-name="Path 31790" d="M372.5,74.6s-22,134,7.8,142.9c28,8.4,96.3-39.6,94.8-68.8-2.4-45.2-102.5-74.1-102.5-74.1" fill="#f67aac"/>
      <path id="Path_31791" data-name="Path 31791" d="M343.1,226.3a32.1,32.1,0,0,1,30.5-23.4c-4,12-17.9,22.1-30.5,23.4" fill="#d81071"/>
      <path id="Path_31792" data-name="Path 31792" d="M446.3,104.9c-9,3.2-15.9,10.4-18.4,17.8a20.3,20.3,0,0,0,3.1,19.5c5.6-9.9,12.2-24.8,15.3-37.3" fill="#ac0857"/>
      <path id="Path_31793" data-name="Path 31793" d="M408.3,181.6c-15-15.9-22.6-28.1-22.7-28.3a1.3,1.3,0,0,0-1.9-.4h0a1.3,1.3,0,0,0-.4,1.8c.1.2,8,12.8,23.6,29.3l1.4-2.4" fill="#3a2530"/>
      <path id="Path_31794" data-name="Path 31794" d="M348.4,113.6c7.8,1.7,18.7,4.3,24.2,10.9,3.5,4.3,1.9,10.2-4.2,12.9-8.2,3.8-12.1-3.1-14.3-9.4s-3.7-9.7-5.8-14.4h0" fill="#ac0857"/>
      <path id="Path_31795" data-name="Path 31795" d="M360,108.7c-2.2,7.7-5.2,18.6-2.2,27,2,5.4,7.8,6.8,12.9,2.2,7-5.9,3.4-12.5-.9-17.4s-6.7-7.8-9.8-11.8h0" fill="#d81071"/>
      <path id="Path_31796" data-name="Path 31796" d="M369.3,107.2c-3.1,12.3-9.4,30.7-4.1,44.1,4.3,8.3,13.5,7.6,20.6,1.7,10.8-6.9,9.6-19,1.4-27.1-5.8-6.3-12.3-12.3-17.9-18.7h0" fill="#ac0857"/>
      <g id="Group_7311" data-name="Group 7311" opacity="0.15">
        <g id="Group_7310" data-name="Group 7310" clip-path="url(#clip-path-6)">
          <path id="Path_31797" data-name="Path 31797" d="M351,119.7q1.7,4.1,3.2,8.3c.8,2.3,29,26.8,30.1,26l.9-.5.7-.5c15-24-21.5-31.9-34.8-33.3" fill="#990021"/>
        </g>
      </g>
      <path id="Path_31798" data-name="Path 31798" d="M345.8,123.4c12.6,1.5,32.1,2.2,42.7,11.8,6.3,7,2.3,15.4-5.8,19.8-10.3,7.7-21.2,2.2-25.8-8.3-3.8-7.7-7.1-15.9-11.1-23.4h0" fill="#d81071"/>
      <g id="Group_7313" data-name="Group 7313" opacity="0.15">
        <g id="Group_7312" data-name="Group 7312" clip-path="url(#clip-path-7)">
          <path id="Path_31799" data-name="Path 31799" d="M383.9,152.6c-10.6,5.3-25.9-7.1-35.2-28.9l-2.9-.3h0c4,7.5,7.3,15.7,11.1,23.4,4.7,10.5,15.6,16,25.8,8.3a20.6,20.6,0,0,0,5.4-4.3,27.6,27.6,0,0,1-4.2,1.8" fill="#990021"/>
        </g>
      </g>
      <path id="Path_31800" data-name="Path 31800" d="M396.5,100.2c6.5,4.7,15.5,11.3,18,19.5,1.5,5.3-2.2,10.2-8.9,10.2-9.1.2-9.9-7.6-9.5-14.2s.4-10.4.4-15.5h0" fill="#ac0857"/>
      <path id="Path_31801" data-name="Path 31801" d="M409,100.3c-5.1,6.2-12.1,15.1-12.7,23.9-.3,5.7,4.5,9.3,11,7.1,8.7-2.6,8-10.1,6-16.3s-3-9.8-4.4-14.8h0" fill="#d81071"/>
      <path id="Path_31802" data-name="Path 31802" d="M418.2,102.5c-7.7,10.1-20.7,24.6-21.2,38.9.7,9.3,9.4,12.3,18.3,9.6,12.7-2,16.3-13.7,12-24.3-2.9-8.1-6.5-16.2-9.1-24.2h0" fill="#ac0857"/>
      <g id="Group_7315" data-name="Group 7315" opacity="0.15">
        <g id="Group_7314" data-name="Group 7314" clip-path="url(#clip-path-8)">
          <path id="Path_31803" data-name="Path 31803" d="M396.4,106.8q-.1,4.4-.3,8.9c-.2,2.5,16.2,36.1,17.4,35.7h1l.8-.2c23.2-16.1-7.2-37.8-18.9-44.3" fill="#990021"/>
        </g>
      </g>
      <path id="Path_31804" data-name="Path 31804" d="M390.2,108.2c11,6.3,28.6,14.6,34.6,27.7,3,8.9-3.9,15-13.1,16-12.5,3-20.3-6.3-20.5-17.8-.5-8.6-.3-17.4-1-25.9h0" fill="#d81071"/>
      <g id="Group_7317" data-name="Group 7317" opacity="0.15">
        <g id="Group_7316" data-name="Group 7316" clip-path="url(#clip-path-9)">
          <path id="Path_31805" data-name="Path 31805" d="M413.7,150.1c-11.8.7-21-16.7-21-40.5l-2.6-1.4h0c.7,8.5.5,17.3,1,25.9.1,11.5,8,20.8,20.5,17.8a20.6,20.6,0,0,0,6.6-1.8,27.6,27.6,0,0,1-4.6,0" fill="#990021"/>
        </g>
      </g>
      <path id="Path_31806" data-name="Path 31806" d="M461.5,218.9a1.3,1.3,0,0,1-1.1-1.1c-6.8-39.3-2.4-68.3-2.4-68.6a1.3,1.3,0,0,1,1.5-1.1h0a1.3,1.3,0,0,1,1.1,1.5c0,.3-4.3,28.9,2.4,67.7a1.3,1.3,0,0,1-1.1,1.6h-.4" fill="#3a2530"/>
      <path id="Path_31807" data-name="Path 31807" d="M458.3,95.3c4.9,6.4,11.4,15.5,11.4,24-.1,5.5-5.2,9-11.6,7.1-8.7-2.5-7.2-10.2-4.8-16.4s3.5-9.8,5-14.7h0" fill="#ac0857"/>
      <path id="Path_31808" data-name="Path 31808" d="M470.2,99.1c-6.7,4.4-16,10.8-19.2,19-2,5.4,1.5,10.2,8.4,10.1,9.1.1,10.7-7.2,10.6-13.8s0-10.3.2-15.4h0" fill="#d81071"/>
      <path id="Path_31809" data-name="Path 31809" d="M478.3,104c-10.4,7.3-27.1,17.3-31.8,30.9-2.2,9.1,5.3,14.6,14.6,14.6,12.7,1.8,19.7-8.2,18.7-19.7-.3-8.6-1.3-17.3-1.4-25.9h0" fill="#ac0857"/>
      <g id="Group_7319" data-name="Group 7319" opacity="0.15">
        <g id="Group_7318" data-name="Group 7318" clip-path="url(#clip-path-10)">
          <path id="Path_31810" data-name="Path 31810" d="M456.2,101.6q-1.4,4.2-3,8.4c-.9,2.3,4.7,39.2,5.9,39.3l1,.2h.8c27-8.5,4.4-38.2-4.8-47.9" fill="#990021"/>
        </g>
      </g>
      <path id="Path_31811" data-name="Path 31811" d="M449.9,101.1c8.6,9.3,23,22.5,24.8,36.8.2,9.4-8.2,13.2-17.3,11.3-12.8-.8-17.5-12.1-14.2-23.1,2.1-8.3,4.9-16.7,6.7-25h0" fill="#d81071"/>
      <g id="Group_7321" data-name="Group 7321" opacity="0.15">
        <g id="Group_7320" data-name="Group 7320" clip-path="url(#clip-path-11)">
          <path id="Path_31812" data-name="Path 31812" d="M459.9,148.1c-11.5-2.8-15.1-22.2-8-44.9l-2-2.1h0c-1.9,8.3-4.7,16.7-6.7,25-3.3,11,1.4,22.3,14.2,23.1a20.7,20.7,0,0,0,6.9.3,27.6,27.6,0,0,1-4.4-1.3" fill="#990021"/>
        </g>
      </g>
      <path id="Path_31813" data-name="Path 31813" d="M424.8,219.2a1.3,1.3,0,0,1-1.3.3c-30.6-8.9-49.7-20.7-49.9-20.8a1.346,1.346,0,1,1,1.4-2.3c.2.1,19,11.7,49.2,20.5a1.3,1.3,0,0,1,.5,2.3" fill="#3a2530"/>
      <path id="Path_31814" data-name="Path 31814" d="M324,177.4c7.8-2,18.7-4.5,26.5-1.1,5,2.3,6.3,8.3,2,13.4-5.7,7.1-12.2,2.6-17-2s-7.7-7.1-11.6-10.3h0" fill="#ac0857"/>
      <path id="Path_31815" data-name="Path 31815" d="M332.2,167.9c1.5,7.9,3.7,18.9,10,25.1,4.2,3.9,10,2.6,12.6-3.8,3.6-8.4-2.5-12.7-8.5-15.1s-9.5-4-14.1-6.2h0" fill="#d81071"/>
      <path id="Path_31816" data-name="Path 31816" d="M339.9,162.4c2.7,12.4,5.3,31.7,16,41.3,7.5,5.5,15.5.8,19.2-7.7,6.6-11,.1-21.3-10.8-24.9-8-3.1-16.5-5.5-24.4-8.7h0" fill="#ac0857"/>
      <g id="Group_7323" data-name="Group 7323" opacity="0.15">
        <g id="Group_7322" data-name="Group 7322" clip-path="url(#clip-path-12)">
          <path id="Path_31817" data-name="Path 31817" d="M329.1,181.7l6.6,6c1.8,1.7,38,11,38.5,9.8l.6-.9.3-.8c2.7-28.1-33.5-19-46-14.2" fill="#990021"/>
        </g>
      </g>
      <path id="Path_31818" data-name="Path 31818" d="M326.1,187.4c11.9-4.3,29.7-12.4,43.5-8.5,8.7,3.4,8.9,12.7,3.7,20.3-5.7,11.5-17.9,11.5-26.8,4.1-6.9-5.2-13.5-11-20.4-15.9h0" fill="#d81071"/>
      <g id="Group_7325" data-name="Group 7325" opacity="0.15">
        <g id="Group_7324" data-name="Group 7324" clip-path="url(#clip-path-13)">
          <path id="Path_31819" data-name="Path 31819" d="M373.3,196.5c-7.1,9.4-26.3,5.2-44.4-10.1l-2.7,1h0c6.9,4.9,13.5,10.8,20.4,15.9,8.9,7.3,21.1,7.4,26.8-4.1a20.7,20.7,0,0,0,2.9-6.2,27.6,27.6,0,0,1-2.9,3.5" fill="#990021"/>
        </g>
      </g>
      <path id="Path_31820" data-name="Path 31820" d="M479.4,135c-37.8,42.9-63.9,67.4-113.4,76.3,37,34.8,67.6,47.3,113.6,53,11-47.3,12.6-84.8-.1-129.3" fill="#ffd0e4"/>
      <path id="Path_31821" data-name="Path 31821" d="M365.3,239.7c-4.5-8.4-4.9-18.4-1.8-25.5a20.3,20.3,0,0,1,15.3-12.5c-2.4,11.1-7.4,26.7-13.5,38" fill="#d81071"/>
      <path id="Path_31822" data-name="Path 31822" d="M370.2,164.7c8,.5,19.2,1.4,25.6,7.1,4.1,3.7,3.5,9.8-2.2,13.4-7.6,5-12.4-1.2-15.5-7.1a144.864,144.864,0,0,0-7.9-13.4h0" fill="#ac0857"/>
      <path id="Path_31823" data-name="Path 31823" d="M380.9,158.1c-1,7.9-2.3,19.2,1.9,27,2.8,5,8.8,5.5,13.1.2,6-6.9,1.5-12.8-3.5-17s-7.8-6.7-11.5-10.2h0" fill="#d81071"/>
      <path id="Path_31824" data-name="Path 31824" d="M389.9,155.2c-1.2,12.6-4.6,31.8,2.6,44.2,5.5,7.6,14.5,5.5,20.6-1.5,9.7-8.4,6.6-20.2-2.7-27-6.7-5.4-14-10.3-20.5-15.8h0" fill="#ac0857"/>
      <g id="Group_7327" data-name="Group 7327" opacity="0.15">
        <g id="Group_7326" data-name="Group 7326" clip-path="url(#clip-path-14)">
          <path id="Path_31825" data-name="Path 31825" d="M373.7,170.3q2.3,3.8,4.4,7.7c1.2,2.2,32.8,22.1,33.7,21.2l.8-.6.6-.6c11.2-26-26.1-28.3-39.4-27.6" fill="#990021"/>
        </g>
      </g>
      <path id="Path_31826" data-name="Path 31826" d="M369.1,174.8c12.7-.5,32-2.7,44,5.2,7.2,5.9,4.6,14.8-2.7,20.5-9,9.2-20.6,5.4-26.8-4.3-5-7-9.5-14.6-14.5-21.4h0" fill="#d81071"/>
      <g id="Group_7329" data-name="Group 7329" opacity="0.15">
        <g id="Group_7328" data-name="Group 7328" clip-path="url(#clip-path-15)">
          <path id="Path_31827" data-name="Path 31827" d="M411.2,197.9c-9.6,6.8-26.7-3.1-39.2-23.3h-2.9c5.1,6.8,9.6,14.4,14.5,21.4,6.2,9.7,17.8,13.4,26.8,4.3a20.7,20.7,0,0,0,4.7-5,27.5,27.5,0,0,1-3.9,2.4" fill="#990021"/>
        </g>
      </g>
      <path id="Path_31828" data-name="Path 31828" d="M493.5,154.8c-7.6-5.8-17.3-7.8-24.9-5.9A20.3,20.3,0,0,0,453.8,162c11.3-.6,27.5-3.1,39.7-7.2" fill="#ac0857"/>
      <path id="Path_31829" data-name="Path 31829" d="M412.8,133.4c7.2,3.5,17.2,8.5,21.1,16.2,2.4,4.9-.5,10.4-7.1,11.6-8.9,1.8-11.1-5.8-11.8-12.4s-1.4-10.3-2.3-15.4h0" fill="#ac0857"/>
      <path id="Path_31830" data-name="Path 31830" d="M425.2,131.3c-3.9,7-9.3,16.9-8.4,25.7.7,5.7,6.1,8.4,12.1,5.2,8.2-4.1,6.2-11.3,3.2-17.1s-4.7-9.2-6.9-13.8h0" fill="#d81071"/>
      <path id="Path_31831" data-name="Path 31831" d="M434.6,132c-5.9,11.2-16.2,27.8-14.2,42,2.2,9.1,11.4,10.5,19.7,6.3,12.1-4.2,13.7-16.3,7.6-26-4.2-7.5-9.1-14.8-13.1-22.3h0" fill="#ac0857"/>
      <g id="Group_7331" data-name="Group 7331" opacity="0.15">
        <g id="Group_7330" data-name="Group 7330" clip-path="url(#clip-path-16)">
          <path id="Path_31832" data-name="Path 31832" d="M413.9,139.9q.7,4.4,1.2,8.8c.3,2.4,22.1,32.8,23.3,32.2l1-.3.8-.4c20.1-19.9-13.5-36-26.2-40.4" fill="#990021"/>
        </g>
      </g>
      <path id="Path_31833" data-name="Path 31833" d="M408,142.3c11.9,4.3,30.7,9.5,38.8,21.3,4.5,8.2-1.3,15.5-10.2,18-11.8,5.1-21.1-2.7-23.2-14-2-8.4-3.3-17.1-5.4-25.3h0" fill="#d81071"/>
      <g id="Group_7333" data-name="Group 7333" opacity="0.15">
        <g id="Group_7332" data-name="Group 7332" clip-path="url(#clip-path-17)">
          <path id="Path_31834" data-name="Path 31834" d="M438.3,179.6c-11.5,2.7-23.6-12.9-27.6-36.3l-2.8-1h0c2.1,8.2,3.5,16.9,5.4,25.3,2.1,11.3,11.5,19.1,23.2,14a20.7,20.7,0,0,0,6.2-2.9,27.5,27.5,0,0,1-4.5.8" fill="#990021"/>
        </g>
      </g>
      <path id="Path_31835" data-name="Path 31835" d="M499.1,308.3a1.1,1.1,0,0,1-1.1-.5c-15.6-23.6-21.4-43-21.4-43.1a1.4,1.4,0,0,1,.9-1.6,1.1,1.1,0,0,1,1.6.7c.1.2,5.8,19.3,21.2,42.6a1.3,1.3,0,0,1-.4,1.8l-.7.3" fill="#3a2530"/>
      <path id="Path_31836" data-name="Path 31836" d="M510.2,299.7a1.2,1.2,0,0,1-1.2-.2c-21.3-18.5-31.9-35.4-32-35.6a1.3,1.3,0,0,1,.5-1.8,1.2,1.2,0,0,1,1.7.3c.1.2,10.5,16.8,31.5,35.1a1.2,1.2,0,0,1,0,1.8l-.6.4" fill="#3a2530"/>
      <path id="Path_31837" data-name="Path 31837" d="M515.4,294.8a1.3,1.3,0,0,1-1.2-.1c-23.8-15.5-36.6-30.7-36.7-30.9a1.359,1.359,0,0,1,2.1-1.7c.1.2,12.7,15.2,36.2,30.5a1.2,1.2,0,0,1,.2,1.7l-.6.5" fill="#3a2530"/>
      <path id="Path_31838" data-name="Path 31838" d="M476.9,261.7c-8.3,14.5-9.3,28.4-7.4,45.6,11.9-3.3,38.2-21.8,46.4-34.9-9.9-7.6-25.7-12.8-39.1-10.6" fill="#ffd0e4"/>
      <path id="Path_31839" data-name="Path 31839" d="M478.4,263l-.7.4-1.4.8c-6,3.6-24.1,14.6-34.8,7.2-3-2.1-4.1-6.8-2.4-10.6s5.5-8.7,19.7-5.3l18.8,4.6h0a1.778,1.778,0,0,1,.8,3m-34.9,5.5c5.6,3.9,15.4,1.8,29.1-6.2L458,258.9c-8.2-1.9-13.9-.7-15.7,3.3-1.1,2.5-.3,5.3,1.2,6.4" fill="#ac0857"/>
      <path id="Path_31840" data-name="Path 31840" d="M495.9,251.7c-5.7,5-12.8,8.6-16.1,10.3l-1.4.7a1.709,1.709,0,0,1-2.8-1.8h0l6.1-18.3c4.7-13.8,12-14.3,14.9-13.9s7.6,4,7.8,7.6c.3,6-3.5,11.3-8.4,15.5m-15.7,6.1c14-7.4,21-14.6,20.6-21.5-.1-1.8-2.1-4-4.8-4.4-4.4-.6-8.5,3.6-11.2,11.6l-4.7,14.2" fill="#ac0857"/>
      <path id="Path_31841" data-name="Path 31841" d="M506,279.5a1.7,1.7,0,0,1-2.3,0c-9-8-19.5-13.8-29-16a1.746,1.746,0,1,1,.8-3.4c10,2.3,21.1,8.4,30.5,16.8a1.7,1.7,0,0,1,.1,2.5l-.2.2" fill="#ac0857"/>
      <path id="Path_31842" data-name="Path 31842" d="M476.7,293.8l-.8.4a1.7,1.7,0,0,1-2-1.4c-2.2-10.8-1.9-20.4,1.1-32.1a1.746,1.746,0,1,1,3.4.8c-2.8,11.2-3.1,20.3-1,30.6a1.7,1.7,0,0,1-.6,1.7" fill="#ac0857"/>
    </g>
  </g>
</svg>
